<svg xmlns="http://www.w3.org/2000/svg" xmlns:xlink="http://www.w3.org/1999/xlink">

<defs>
    <style>
        .a,.b,.c,.d{stroke:#000;stroke-miterlimit:10;}
            .a{fill:url(#a);}
            .b{fill:#696969;}
            .c{fill:#5a5a5a;}
            .d{fill:#357ec7;}
    </style>
<linearGradient 
    id="a" 
    x1="270.5" 
    y1="507.47" 
    x2="715.2" 
    y2="507.47"

    gradientUnits="userSpaceOnUse">
    <stop offset="0.11" stop-color="#aa5e00"/>
    <stop offset="0.31" stop-color="#aa5800"/>
    <stop offset="0.56" stop-color="#aa4800"/>
    <stop offset="0.85" stop-color="#aa2e00"/>
    <stop offset="1" stop-color="#aa1c00"/>
   </linearGradient>
</defs>
    
<path class="a" d="M391.1, 414.8c81.1-9.2 ,228.8-13.2, 301.1, 67.7a110.19, 110.19, 0, 0, 1, 22.4, 66.3l.6, 56.1L687, 604.6s-47.87-73.25-110.87, 0H391.7s-50.13-74.53-110.13, 0H270.5V472.9H391.7V414.4" 
      transform="translate(-270 -409.54)"
/>
      
      
<ellipse class="b" 
         cx="362.1" 
         cy="220.35" 
         rx="39.73" 
         ry="50"
/>
          
<rect class="c"
      x="148.5" 
      y="79.56" 
      width="91" 
      height="108"
/>    

<path class="d" d="M675.3, 489.1H542.1V435s116.9, 5.2, 132.8, 54.1" 
      transform="translate(-270 -409.54)"
/> 

<rect class="d"
      x="148.5" 
      y="24.56" 
      width="91" 
      height="55"
/>

<ellipse class="b" 
         cx="64.78" 
         cy="220.35" 
         rx="39.73" 
         ry="50"
/>

</svg>